<svg fill="#000000" height="200px" width="200px" version="1.1" id="Layer_1"
  xmlns="http://www.w3.org/2000/svg"
  xmlns:xlink="http://www.w3.org/1999/xlink" viewBox="0 0 330.001 330.001" xml:space="preserve">
  <g id="SVGRepo_bgCarrier" stroke-width="0"></g>
  <g id="SVGRepo_tracerCarrier" stroke-linecap="round" stroke-linejoin="round"></g>
  <g id="SVGRepo_iconCarrier">
    <path id="XMLID_453_" d="M298.601,118.673C296.139,113.383,290.834,110,285,110h-82.675l55.33-86.947 c2.939-4.619,3.128-10.472,0.494-15.271C255.515,2.983,250.475,0,245,0h-90c-5.353,0-10.3,2.852-12.981,7.484l-110,190 c-2.687,4.641-2.692,10.362-0.014,15.008C34.684,217.138,39.638,220,45,220h90.361l-24.833,91.053 c-1.853,6.793,1.269,13.96,7.504,17.23c2.208,1.158,4.596,1.717,6.961,1.717c4.313,0,8.552-1.86,11.48-5.339l160-190 C300.232,130.199,301.062,123.962,298.601,118.673z M157.389,253.252l12.083-44.305c1.23-4.51,0.287-9.336-2.551-13.052 C164.083,192.18,159.675,190,155,190H71.017l92.632-160h54.026l-55.33,86.947c-2.938,4.619-3.128,10.472-0.494,15.272 C164.486,137.017,169.526,140,175,140h77.759L157.389,253.252z"></path>
  </g>
</svg>